<?xml version="1.0" standalone="no"?>
<!DOCTYPE svg PUBLIC "-//W3C//DTD SVG 20010904//EN"
 "http://www.w3.org/TR/2001/REC-SVG-20010904/DTD/svg10.dtd">
<svg version="1.0" xmlns="http://www.w3.org/2000/svg"
 width="512.000000pt" height="512.000000pt" viewBox="0 0 512.000000 512.000000"
 preserveAspectRatio="xMidYMid meet">
<metadata>
Created by potrace 1.11, written by Peter Selinger 2001-2013
</metadata>
<g transform="translate(0.000000,512.000000) scale(0.100000,-0.100000)"
fill="#000000" stroke="none">
<path d="M1230 4433 c-28 -10 -66 -37 -102 -73 -59 -59 -67 -79 -139 -327
l-12 -43 -376 0 c-342 0 -380 -2 -416 -19 -43 -19 -100 -78 -116 -118 -5 -15
-9 -651 -9 -1604 0 -1552 0 -1580 20 -1618 26 -51 82 -97 136 -110 64 -16
4618 -15 4682 1 61 15 137 89 149 144 4 22 8 741 8 1599 0 1496 -1 1562 -18
1597 -25 49 -63 87 -112 109 -37 17 -73 19 -416 19 l-377 0 -7 28 c-3 15 -24
85 -47 156 -38 124 -42 132 -96 186 -98 98 26 90 -1431 89 -1138 0 -1281 -2
-1321 -16z"/>
</g>
</svg>
