<?xml version="1.0" standalone="no"?>
<!DOCTYPE svg PUBLIC "-//W3C//DTD SVG 20010904//EN"
 "http://www.w3.org/TR/2001/REC-SVG-20010904/DTD/svg10.dtd">
<svg version="1.0" xmlns="http://www.w3.org/2000/svg"
 width="512.000000pt" height="512.000000pt" viewBox="0 0 512.000000 512.000000"
 preserveAspectRatio="xMidYMid meet">
<metadata>
Created by potrace 1.11, written by Peter Selinger 2001-2013
</metadata>
<g transform="translate(0.000000,512.000000) scale(0.100000,-0.100000)"
fill="#000000" stroke="none">
<path d="M0 2560 l0 -2560 2560 0 2560 0 0 2560 0 2560 -2560 0 -2560 0 0
-2560z m1615 1350 c147 -21 305 -67 410 -120 278 -138 421 -364 441 -698 8
-136 -6 -304 -61 -712 -78 -576 -106 -827 -130 -1170 l-5 -85 45 50 c377 412
726 995 1007 1685 l76 185 7 140 c7 153 19 228 40 245 13 11 209 70 233 70 35
0 34 -42 -7 -371 -45 -357 -66 -583 -81 -879 -13 -253 -13 -663 0 -826 11
-133 37 -309 49 -332 12 -21 203 218 349 436 408 610 603 1225 590 1866 l-3
139 120 83 c155 107 176 108 194 9 26 -137 -42 -490 -160 -830 -195 -565 -612
-1304 -985 -1744 -121 -142 -256 -281 -274 -281 -46 0 -108 323 -131 680 -13
201 -7 707 12 1057 6 111 9 207 7 213 -2 6 -23 -36 -47 -92 -66 -155 -261
-547 -340 -685 -271 -473 -562 -844 -857 -1094 -122 -103 -119 -108 -118 214
1 289 14 433 98 1067 73 542 80 622 81 850 0 226 -9 269 -81 417 -78 158 -218
288 -375 347 -150 56 -320 70 -512 41 -342 -52 -492 -203 -592 -601 l-34 -134
-80 -90 c-44 -50 -89 -111 -101 -135 -43 -89 -20 -204 52 -258 47 -34 91 -47
167 -47 53 0 79 6 131 31 287 136 414 165 443 102 15 -34 -2 -111 -61 -269
-27 -71 -54 -151 -62 -178 l-13 -49 31 -28 c17 -16 64 -38 104 -51 64 -20 93
-23 228 -22 178 0 228 13 328 84 74 52 92 52 92 2 0 -32 -7 -45 -52 -89 -119
-115 -230 -158 -391 -151 -133 6 -231 45 -317 124 -83 77 -86 90 -66 235 20
135 15 192 -17 214 -34 24 -114 18 -253 -20 -71 -20 -149 -41 -174 -46 -70
-16 -181 -13 -225 6 -89 36 -148 132 -149 240 0 114 59 199 255 367 l66 57 7
87 c10 124 24 188 57 274 86 219 291 387 566 465 80 23 101 25 238 21 83 -3
186 -10 230 -16z m-297 -596 c61 -30 126 -87 120 -106 -5 -14 -42 -15 -154 -3
-89 10 -149 -8 -218 -65 -54 -45 -50 -44 -77 -29 -16 8 -19 16 -13 42 17 83
90 165 162 186 52 14 118 5 180 -25z"/>
</g>
</svg>
